<svg xmlns="http://www.w3.org/2000/svg" viewBox="0 0 960 128">
	<rect width="960" height="128" fill="none"></rect>
	<path d="M840.1321 6.0636l37.6973 46.3816L913.9656 6.0636H960L896.5906 80.9389v40.9975H860.11V80.9389L793.7475 6.0636ZM730.8571 51.7507c11.9881 0 17.2-.3473 19.4586-1.2138 2.7781-1.0418 4.17-3.998 4.17-8.34 0-4.6892-1.5675-7.2953-5.04-8.165-1.9116-.5193-2.2588-.5193-18.5892-.6945H681.172V51.7507Zm.172 42.39c20.6756-.1752 20.6756-.1752 23.2816-1.217 3.1254-1.217 4.5176-3.82 4.5176-8.86 0-5.2088-1.5643-7.6429-5.2121-8.6846-1.9115-.5225-1.9115-.5225-22.5871-.5225H681.172V94.1408ZM647.6418 6.0636h83.2153c38.395.172 39.612.172 46.0376 3.3005 8.5123 3.9951 11.8128 11.6376 11.8128 26.9263 0 16.5052-3.9951 23.2784-15.6356 26.5786C788.36 65.4782 793.05 72.2514 793.05 90.84c0 16.1581-4.1671 24.4955-13.8964 28.3153-3.9982 1.3919-10.5958 2.2617-21.02 2.6089-1.3922 0-10.4238 0-27.1047.172H647.6418ZM491.1183 83.5417v5.5622c0 16.5025 2.7813 23.4505 11.4656 28.3153 8.3371 4.6893 22.7592 6.2535 57.328 6.2535 35.7889 0 50.0358-1.0385 57.1559-3.9918 11.2935-4.52 15.8079-14.4218 15.8079-34.0528 0-16.6773-3.1254-24.495-11.6376-29.5319-7.2957-4.3455-15.1134-5.3873-52.4635-6.4287-25.3652-.6945-34.4-1.217-37.5252-2.0836-3.3-1.045-4.8646-3.3-4.8646-7.4708 0-8.5123 2.4308-9.2069 32.138-9.2069 26.579 0 30.5769.3473 33.355 2.6061 1.9115 1.7363 2.434 3.3006 2.606 9.0316h34.05c.1753-2.2556.1753-4.6893.1753-5.3838 0-14.2468-3.1285-21.7174-10.5959-26.407-8.34-4.8648-20.5-6.4258-52.8135-6.4258-41.8677 0-51.9442 1.0418-60.9758 5.9034C496.158 14.7482 492.16 25.172 492.16 42.3719c0 11.6408 2.0835 19.1084 6.4288 24.32 5.212 5.9065 13.3771 8.337 30.2267 8.8595 3.6479 0 15.4636.5225 28.1462 1.217 12.3321.5225 23.7977 1.0418 27.6207 1.0418 11.29.1752 14.0716 1.9115 14.0716 8.8595 0 4.8649-1.217 7.4709-3.823 8.6876-3.3 1.389-7.2953 1.5642-34.0495 1.5642-24.8427 0-28.6654-.3473-31.966-2.4337-2.778-1.7362-3.4725-3.995-3.4725-10.9463ZM399.3936 34.3788c-34.0511 0-37.6989.5225-41.1727 6.7761-2.434 4.17-3.1286 10.5958-3.1286 25.8844 0 14.4189 1.0434 19.1114 5.2118 22.4119 4.5175 3.4726 10.7711 4.17 39.4368 4.17 27.968 0 34.2231-.6977 38.7407-4.17 3.9947-3.1285 5.21-8.34 5.21-22.2367 0-16.5056-1.0434-23.2784-3.995-27.2767-3.6491-5.0365-7.8178-5.559-40.3031-5.559m68.099-22.0614c8.86 6.776 11.4656 18.4168 11.4656 51.5966 0 33.355-2.606 44.8206-11.4656 51.7689-8.8611 6.6008-20.1531 7.99-67.7517 7.99-48.2964 0-59.5867-1.389-68.4479-7.99-8.86-6.9483-11.4656-18.5891-11.4656-52.4634 0-32.1412 2.7781-44.1261 11.4656-50.9021 8.8612-6.6011 19.9779-7.99 68.1006-7.99C447.5132 4.3273 458.6315 5.7163 467.4926 12.3174ZM247.7318 63.5667c17.3722-.3472 17.3722-.3472 19.8042-1.7362 3.1269-1.9116 4.17-5.387 4.17-12.8575s-1.3922-10.9463-4.6924-12.5074c-2.6045-1.217-2.9533-1.217-19.2821-1.389H198.0467v28.49ZM162.78 6.0636h85.2972c39.9577 0 39.9577 0 47.4266 4.5175 8.8612 5.3838 11.4656 13.2019 11.4656 33.18 0 16.6776-1.7363 23.2784-7.4689 28.1432-3.4742 2.7809-6.7747 4.17-14.0716 5.2118 17.8927 2.0835 21.0212 7.2956 20.3251 34.05v10.771H271.01v-6.0782c0-13.03-.6961-17.2-3.4742-20.1535-2.432-2.7809-5.0381-3.125-19.6322-3.125H198.0467v29.3567H162.78ZM112.4 77.2911c-.1736 17.1969-.6961 17.3722-39.2616 17.3722-37.3513 0-37.8722-.5225-37.8722-30.0548 0-17.3718 1.389-24.32 5.559-27.6236 3.6478-2.9533 10.0766-3.6478 31.9647-3.6478 7.993 0 18.4168.3472 23.9742.6945 7.6429.5225 10.4238 1.3922 11.8129 3.3 1.3906 1.9144 1.7378 3.4755 2.0851 10.2518h35.2665V41.8493c0-19.1081-3.823-27.62-14.4189-32.66-7.8177-3.82-18.9361-4.8616-48.6433-4.8616-59.413 0-72.6165 2.95-79.2176 17.5442C.8681 28.4723 0 38.2019 0 64.7837c0 13.3739.3473 23.2753.6945 28.49 1.3907 13.0267 5.2118 19.8027 13.7244 24.145 9.554 4.8645 24.1478 6.2535 68.2742 6.2535 26.58 0 39.4349-1.2138 48.8169-4.3423 11.9865-4.342 16.6777-12.8543 16.6777-31.0962 0-1.7363-.1736-4.3423-.3489-10.9431Z" fill="#ffffff"></path>
</svg>
